<svg width="30" height="30" viewBox="0 0 30 30" fill="none" xmlns="http://www.w3.org/2000/svg">
<rect width="30" height="30" rx="5" fill="#222222"/>
<path d="M7.5 10.8333C7.5 11.4964 7.76339 12.1323 8.23223 12.6011C8.70107 13.0699 9.33696 13.3333 10 13.3333C10.663 13.3333 11.2989 13.0699 11.7678 12.6011C12.2366 12.1323 12.5 11.4964 12.5 10.8333C12.5 10.1703 12.2366 9.53441 11.7678 9.06557C11.2989 8.59672 10.663 8.33333 10 8.33333C9.33696 8.33333 8.70107 8.59672 8.23223 9.06557C7.76339 9.53441 7.5 10.1703 7.5 10.8333Z" stroke="white" stroke-width="2" stroke-linecap="round" stroke-linejoin="round"/>
<path d="M7.5 19.1667C7.5 19.8297 7.76339 20.4656 8.23223 20.9344C8.70107 21.4033 9.33696 21.6667 10 21.6667C10.663 21.6667 11.2989 21.4033 11.7678 20.9344C12.2366 20.4656 12.5 19.8297 12.5 19.1667C12.5 18.5036 12.2366 17.8677 11.7678 17.3989C11.2989 16.9301 10.663 16.6667 10 16.6667C9.33696 16.6667 8.70107 16.9301 8.23223 17.3989C7.76339 17.8677 7.5 18.5036 7.5 19.1667Z" stroke="white" stroke-width="2" stroke-linecap="round" stroke-linejoin="round"/>
<path d="M12.1667 12.1667L20.8333 20.8333" stroke="white" stroke-width="2" stroke-linecap="round" stroke-linejoin="round"/>
<path d="M12.1667 17.8333L20.8333 9.16667" stroke="white" stroke-width="2" stroke-linecap="round" stroke-linejoin="round"/>
</svg>
